<mxfile host="app.diagrams.net" modified="2024-02-17T13:11:26.360Z" agent="Mozilla/5.0 (Windows NT 10.0; Win64; x64) AppleWebKit/537.36 (KHTML, like Gecko) Chrome/121.0.0.0 Safari/537.36 OPR/107.0.0.0" etag="eZFq_8udMiWHU7s-gfgL" version="23.1.4" type="github">
  <diagram name="PÃ¡gina-1" id="9AUMjQT3tCxTY_urKVTj">
    <mxGraphModel dx="826" dy="437" grid="1" gridSize="10" guides="1" tooltips="1" connect="1" arrows="1" fold="1" page="1" pageScale="1" pageWidth="827" pageHeight="1169" math="0" shadow="0">
      <root>
        <mxCell id="0" />
        <mxCell id="1" parent="0" />
        <mxCell id="js0NvnDeoMedCHYEqulD-1" value="Huespedes" style="whiteSpace=wrap;html=1;align=center;" vertex="1" parent="1">
          <mxGeometry x="50" y="180" width="100" height="40" as="geometry" />
        </mxCell>
        <mxCell id="js0NvnDeoMedCHYEqulD-2" value="Reservas" style="whiteSpace=wrap;html=1;align=center;" vertex="1" parent="1">
          <mxGeometry x="260" y="180" width="100" height="40" as="geometry" />
        </mxCell>
        <mxCell id="js0NvnDeoMedCHYEqulD-3" value="Habitaciones" style="whiteSpace=wrap;html=1;align=center;" vertex="1" parent="1">
          <mxGeometry x="470" y="180" width="100" height="40" as="geometry" />
        </mxCell>
        <mxCell id="js0NvnDeoMedCHYEqulD-4" value="Servicios" style="whiteSpace=wrap;html=1;align=center;" vertex="1" parent="1">
          <mxGeometry x="690" y="180" width="100" height="40" as="geometry" />
        </mxCell>
        <mxCell id="js0NvnDeoMedCHYEqulD-5" value="Huespedes" style="shape=table;startSize=30;container=1;collapsible=0;childLayout=tableLayout;strokeColor=default;fontSize=16;" vertex="1" parent="1">
          <mxGeometry x="40" y="340" width="619" height="190" as="geometry" />
        </mxCell>
        <mxCell id="js0NvnDeoMedCHYEqulD-6" value="" style="shape=tableRow;horizontal=0;startSize=0;swimlaneHead=0;swimlaneBody=0;strokeColor=inherit;top=0;left=0;bottom=0;right=0;collapsible=0;dropTarget=0;fillColor=none;points=[[0,0.5],[1,0.5]];portConstraint=eastwest;fontSize=16;" vertex="1" parent="js0NvnDeoMedCHYEqulD-5">
          <mxGeometry y="30" width="619" height="40" as="geometry" />
        </mxCell>
        <mxCell id="js0NvnDeoMedCHYEqulD-34" value="id" style="shape=partialRectangle;html=1;whiteSpace=wrap;connectable=0;strokeColor=inherit;overflow=hidden;fillColor=none;top=0;left=0;bottom=0;right=0;pointerEvents=1;fontSize=16;" vertex="1" parent="js0NvnDeoMedCHYEqulD-6">
          <mxGeometry width="67" height="40" as="geometry">
            <mxRectangle width="67" height="40" as="alternateBounds" />
          </mxGeometry>
        </mxCell>
        <mxCell id="js0NvnDeoMedCHYEqulD-7" value="nombre" style="shape=partialRectangle;html=1;whiteSpace=wrap;connectable=0;strokeColor=inherit;overflow=hidden;fillColor=none;top=0;left=0;bottom=0;right=0;pointerEvents=1;fontSize=16;" vertex="1" parent="js0NvnDeoMedCHYEqulD-6">
          <mxGeometry x="67" width="67" height="40" as="geometry">
            <mxRectangle width="67" height="40" as="alternateBounds" />
          </mxGeometry>
        </mxCell>
        <mxCell id="js0NvnDeoMedCHYEqulD-28" value="apellido" style="shape=partialRectangle;html=1;whiteSpace=wrap;connectable=0;strokeColor=inherit;overflow=hidden;fillColor=none;top=0;left=0;bottom=0;right=0;pointerEvents=1;fontSize=16;" vertex="1" parent="js0NvnDeoMedCHYEqulD-6">
          <mxGeometry x="134" width="66" height="40" as="geometry">
            <mxRectangle width="66" height="40" as="alternateBounds" />
          </mxGeometry>
        </mxCell>
        <mxCell id="js0NvnDeoMedCHYEqulD-31" value="cedula" style="shape=partialRectangle;html=1;whiteSpace=wrap;connectable=0;strokeColor=inherit;overflow=hidden;fillColor=none;top=0;left=0;bottom=0;right=0;pointerEvents=1;fontSize=16;" vertex="1" parent="js0NvnDeoMedCHYEqulD-6">
          <mxGeometry x="200" width="66" height="40" as="geometry">
            <mxRectangle width="66" height="40" as="alternateBounds" />
          </mxGeometry>
        </mxCell>
        <mxCell id="js0NvnDeoMedCHYEqulD-8" value="direccion" style="shape=partialRectangle;html=1;whiteSpace=wrap;connectable=0;strokeColor=inherit;overflow=hidden;fillColor=none;top=0;left=0;bottom=0;right=0;pointerEvents=1;fontSize=16;" vertex="1" parent="js0NvnDeoMedCHYEqulD-6">
          <mxGeometry x="266" width="66" height="40" as="geometry">
            <mxRectangle width="66" height="40" as="alternateBounds" />
          </mxGeometry>
        </mxCell>
        <mxCell id="js0NvnDeoMedCHYEqulD-9" value="telefono" style="shape=partialRectangle;html=1;whiteSpace=wrap;connectable=0;strokeColor=inherit;overflow=hidden;fillColor=none;top=0;left=0;bottom=0;right=0;pointerEvents=1;fontSize=16;" vertex="1" parent="js0NvnDeoMedCHYEqulD-6">
          <mxGeometry x="332" width="67" height="40" as="geometry">
            <mxRectangle width="67" height="40" as="alternateBounds" />
          </mxGeometry>
        </mxCell>
        <mxCell id="js0NvnDeoMedCHYEqulD-25" value="email" style="shape=partialRectangle;html=1;whiteSpace=wrap;connectable=0;strokeColor=inherit;overflow=hidden;fillColor=none;top=0;left=0;bottom=0;right=0;pointerEvents=1;fontSize=16;" vertex="1" parent="js0NvnDeoMedCHYEqulD-6">
          <mxGeometry x="399" width="67" height="40" as="geometry">
            <mxRectangle width="67" height="40" as="alternateBounds" />
          </mxGeometry>
        </mxCell>
        <mxCell id="js0NvnDeoMedCHYEqulD-22" value="fecha_nacimiento" style="shape=partialRectangle;html=1;whiteSpace=wrap;connectable=0;strokeColor=inherit;overflow=hidden;fillColor=none;top=0;left=0;bottom=0;right=0;pointerEvents=1;fontSize=16;" vertex="1" parent="js0NvnDeoMedCHYEqulD-6">
          <mxGeometry x="466" width="153" height="40" as="geometry">
            <mxRectangle width="153" height="40" as="alternateBounds" />
          </mxGeometry>
        </mxCell>
        <mxCell id="js0NvnDeoMedCHYEqulD-10" value="" style="shape=tableRow;horizontal=0;startSize=0;swimlaneHead=0;swimlaneBody=0;strokeColor=inherit;top=0;left=0;bottom=0;right=0;collapsible=0;dropTarget=0;fillColor=none;points=[[0,0.5],[1,0.5]];portConstraint=eastwest;fontSize=16;" vertex="1" parent="js0NvnDeoMedCHYEqulD-5">
          <mxGeometry y="70" width="619" height="40" as="geometry" />
        </mxCell>
        <mxCell id="js0NvnDeoMedCHYEqulD-35" value="1" style="shape=partialRectangle;html=1;whiteSpace=wrap;connectable=0;strokeColor=inherit;overflow=hidden;fillColor=none;top=0;left=0;bottom=0;right=0;pointerEvents=1;fontSize=16;" vertex="1" parent="js0NvnDeoMedCHYEqulD-10">
          <mxGeometry width="67" height="40" as="geometry">
            <mxRectangle width="67" height="40" as="alternateBounds" />
          </mxGeometry>
        </mxCell>
        <mxCell id="js0NvnDeoMedCHYEqulD-11" value="erick" style="shape=partialRectangle;html=1;whiteSpace=wrap;connectable=0;strokeColor=inherit;overflow=hidden;fillColor=none;top=0;left=0;bottom=0;right=0;pointerEvents=1;fontSize=16;" vertex="1" parent="js0NvnDeoMedCHYEqulD-10">
          <mxGeometry x="67" width="67" height="40" as="geometry">
            <mxRectangle width="67" height="40" as="alternateBounds" />
          </mxGeometry>
        </mxCell>
        <mxCell id="js0NvnDeoMedCHYEqulD-29" value="rodriguez" style="shape=partialRectangle;html=1;whiteSpace=wrap;connectable=0;strokeColor=inherit;overflow=hidden;fillColor=none;top=0;left=0;bottom=0;right=0;pointerEvents=1;fontSize=16;" vertex="1" parent="js0NvnDeoMedCHYEqulD-10">
          <mxGeometry x="134" width="66" height="40" as="geometry">
            <mxRectangle width="66" height="40" as="alternateBounds" />
          </mxGeometry>
        </mxCell>
        <mxCell id="js0NvnDeoMedCHYEqulD-32" value="27906893" style="shape=partialRectangle;html=1;whiteSpace=wrap;connectable=0;strokeColor=inherit;overflow=hidden;fillColor=none;top=0;left=0;bottom=0;right=0;pointerEvents=1;fontSize=16;" vertex="1" parent="js0NvnDeoMedCHYEqulD-10">
          <mxGeometry x="200" width="66" height="40" as="geometry">
            <mxRectangle width="66" height="40" as="alternateBounds" />
          </mxGeometry>
        </mxCell>
        <mxCell id="js0NvnDeoMedCHYEqulD-12" value="el vigia merida" style="shape=partialRectangle;html=1;whiteSpace=wrap;connectable=0;strokeColor=inherit;overflow=hidden;fillColor=none;top=0;left=0;bottom=0;right=0;pointerEvents=1;fontSize=16;" vertex="1" parent="js0NvnDeoMedCHYEqulD-10">
          <mxGeometry x="266" width="66" height="40" as="geometry">
            <mxRectangle width="66" height="40" as="alternateBounds" />
          </mxGeometry>
        </mxCell>
        <mxCell id="js0NvnDeoMedCHYEqulD-13" value="04261619011" style="shape=partialRectangle;html=1;whiteSpace=wrap;connectable=0;strokeColor=inherit;overflow=hidden;fillColor=none;top=0;left=0;bottom=0;right=0;pointerEvents=1;fontSize=16;" vertex="1" parent="js0NvnDeoMedCHYEqulD-10">
          <mxGeometry x="332" width="67" height="40" as="geometry">
            <mxRectangle width="67" height="40" as="alternateBounds" />
          </mxGeometry>
        </mxCell>
        <mxCell id="js0NvnDeoMedCHYEqulD-26" value="erick@gmail.com" style="shape=partialRectangle;html=1;whiteSpace=wrap;connectable=0;strokeColor=inherit;overflow=hidden;fillColor=none;top=0;left=0;bottom=0;right=0;pointerEvents=1;fontSize=16;" vertex="1" parent="js0NvnDeoMedCHYEqulD-10">
          <mxGeometry x="399" width="67" height="40" as="geometry">
            <mxRectangle width="67" height="40" as="alternateBounds" />
          </mxGeometry>
        </mxCell>
        <mxCell id="js0NvnDeoMedCHYEqulD-23" value="1999-10-01" style="shape=partialRectangle;html=1;whiteSpace=wrap;connectable=0;strokeColor=inherit;overflow=hidden;fillColor=none;top=0;left=0;bottom=0;right=0;pointerEvents=1;fontSize=16;" vertex="1" parent="js0NvnDeoMedCHYEqulD-10">
          <mxGeometry x="466" width="153" height="40" as="geometry">
            <mxRectangle width="153" height="40" as="alternateBounds" />
          </mxGeometry>
        </mxCell>
        <mxCell id="js0NvnDeoMedCHYEqulD-14" value="" style="shape=tableRow;horizontal=0;startSize=0;swimlaneHead=0;swimlaneBody=0;strokeColor=inherit;top=0;left=0;bottom=0;right=0;collapsible=0;dropTarget=0;fillColor=none;points=[[0,0.5],[1,0.5]];portConstraint=eastwest;fontSize=16;" vertex="1" parent="js0NvnDeoMedCHYEqulD-5">
          <mxGeometry y="110" width="619" height="40" as="geometry" />
        </mxCell>
        <mxCell id="js0NvnDeoMedCHYEqulD-36" value="2" style="shape=partialRectangle;html=1;whiteSpace=wrap;connectable=0;strokeColor=inherit;overflow=hidden;fillColor=none;top=0;left=0;bottom=0;right=0;pointerEvents=1;fontSize=16;" vertex="1" parent="js0NvnDeoMedCHYEqulD-14">
          <mxGeometry width="67" height="40" as="geometry">
            <mxRectangle width="67" height="40" as="alternateBounds" />
          </mxGeometry>
        </mxCell>
        <mxCell id="js0NvnDeoMedCHYEqulD-15" value="arelis" style="shape=partialRectangle;html=1;whiteSpace=wrap;connectable=0;strokeColor=inherit;overflow=hidden;fillColor=none;top=0;left=0;bottom=0;right=0;pointerEvents=1;fontSize=16;" vertex="1" parent="js0NvnDeoMedCHYEqulD-14">
          <mxGeometry x="67" width="67" height="40" as="geometry">
            <mxRectangle width="67" height="40" as="alternateBounds" />
          </mxGeometry>
        </mxCell>
        <mxCell id="js0NvnDeoMedCHYEqulD-30" value="agudelo" style="shape=partialRectangle;html=1;whiteSpace=wrap;connectable=0;strokeColor=inherit;overflow=hidden;fillColor=none;top=0;left=0;bottom=0;right=0;pointerEvents=1;fontSize=16;" vertex="1" parent="js0NvnDeoMedCHYEqulD-14">
          <mxGeometry x="134" width="66" height="40" as="geometry">
            <mxRectangle width="66" height="40" as="alternateBounds" />
          </mxGeometry>
        </mxCell>
        <mxCell id="js0NvnDeoMedCHYEqulD-33" value="12354063" style="shape=partialRectangle;html=1;whiteSpace=wrap;connectable=0;strokeColor=inherit;overflow=hidden;fillColor=none;top=0;left=0;bottom=0;right=0;pointerEvents=1;fontSize=16;" vertex="1" parent="js0NvnDeoMedCHYEqulD-14">
          <mxGeometry x="200" width="66" height="40" as="geometry">
            <mxRectangle width="66" height="40" as="alternateBounds" />
          </mxGeometry>
        </mxCell>
        <mxCell id="js0NvnDeoMedCHYEqulD-16" value="el vigia merida" style="shape=partialRectangle;html=1;whiteSpace=wrap;connectable=0;strokeColor=inherit;overflow=hidden;fillColor=none;top=0;left=0;bottom=0;right=0;pointerEvents=1;fontSize=16;" vertex="1" parent="js0NvnDeoMedCHYEqulD-14">
          <mxGeometry x="266" width="66" height="40" as="geometry">
            <mxRectangle width="66" height="40" as="alternateBounds" />
          </mxGeometry>
        </mxCell>
        <mxCell id="js0NvnDeoMedCHYEqulD-17" value="04169780133" style="shape=partialRectangle;html=1;whiteSpace=wrap;connectable=0;strokeColor=inherit;overflow=hidden;fillColor=none;top=0;left=0;bottom=0;right=0;pointerEvents=1;fontSize=16;" vertex="1" parent="js0NvnDeoMedCHYEqulD-14">
          <mxGeometry x="332" width="67" height="40" as="geometry">
            <mxRectangle width="67" height="40" as="alternateBounds" />
          </mxGeometry>
        </mxCell>
        <mxCell id="js0NvnDeoMedCHYEqulD-27" value="arelis@gmail.com" style="shape=partialRectangle;html=1;whiteSpace=wrap;connectable=0;strokeColor=inherit;overflow=hidden;fillColor=none;top=0;left=0;bottom=0;right=0;pointerEvents=1;fontSize=16;" vertex="1" parent="js0NvnDeoMedCHYEqulD-14">
          <mxGeometry x="399" width="67" height="40" as="geometry">
            <mxRectangle width="67" height="40" as="alternateBounds" />
          </mxGeometry>
        </mxCell>
        <mxCell id="js0NvnDeoMedCHYEqulD-24" value="1975-06-07" style="shape=partialRectangle;html=1;whiteSpace=wrap;connectable=0;strokeColor=inherit;overflow=hidden;fillColor=none;top=0;left=0;bottom=0;right=0;pointerEvents=1;fontSize=16;" vertex="1" parent="js0NvnDeoMedCHYEqulD-14">
          <mxGeometry x="466" width="153" height="40" as="geometry">
            <mxRectangle width="153" height="40" as="alternateBounds" />
          </mxGeometry>
        </mxCell>
        <mxCell id="js0NvnDeoMedCHYEqulD-37" value="" style="shape=tableRow;horizontal=0;startSize=0;swimlaneHead=0;swimlaneBody=0;strokeColor=inherit;top=0;left=0;bottom=0;right=0;collapsible=0;dropTarget=0;fillColor=none;points=[[0,0.5],[1,0.5]];portConstraint=eastwest;fontSize=16;" vertex="1" parent="js0NvnDeoMedCHYEqulD-5">
          <mxGeometry y="150" width="619" height="40" as="geometry" />
        </mxCell>
        <mxCell id="js0NvnDeoMedCHYEqulD-38" value="3" style="shape=partialRectangle;html=1;whiteSpace=wrap;connectable=0;strokeColor=inherit;overflow=hidden;fillColor=none;top=0;left=0;bottom=0;right=0;pointerEvents=1;fontSize=16;" vertex="1" parent="js0NvnDeoMedCHYEqulD-37">
          <mxGeometry width="67" height="40" as="geometry">
            <mxRectangle width="67" height="40" as="alternateBounds" />
          </mxGeometry>
        </mxCell>
        <mxCell id="js0NvnDeoMedCHYEqulD-39" value="leonardo" style="shape=partialRectangle;html=1;whiteSpace=wrap;connectable=0;strokeColor=inherit;overflow=hidden;fillColor=none;top=0;left=0;bottom=0;right=0;pointerEvents=1;fontSize=16;" vertex="1" parent="js0NvnDeoMedCHYEqulD-37">
          <mxGeometry x="67" width="67" height="40" as="geometry">
            <mxRectangle width="67" height="40" as="alternateBounds" />
          </mxGeometry>
        </mxCell>
        <mxCell id="js0NvnDeoMedCHYEqulD-40" value="vergel" style="shape=partialRectangle;html=1;whiteSpace=wrap;connectable=0;strokeColor=inherit;overflow=hidden;fillColor=none;top=0;left=0;bottom=0;right=0;pointerEvents=1;fontSize=16;" vertex="1" parent="js0NvnDeoMedCHYEqulD-37">
          <mxGeometry x="134" width="66" height="40" as="geometry">
            <mxRectangle width="66" height="40" as="alternateBounds" />
          </mxGeometry>
        </mxCell>
        <mxCell id="js0NvnDeoMedCHYEqulD-41" value="24055214" style="shape=partialRectangle;html=1;whiteSpace=wrap;connectable=0;strokeColor=inherit;overflow=hidden;fillColor=none;top=0;left=0;bottom=0;right=0;pointerEvents=1;fontSize=16;" vertex="1" parent="js0NvnDeoMedCHYEqulD-37">
          <mxGeometry x="200" width="66" height="40" as="geometry">
            <mxRectangle width="66" height="40" as="alternateBounds" />
          </mxGeometry>
        </mxCell>
        <mxCell id="js0NvnDeoMedCHYEqulD-42" value="tovar merida" style="shape=partialRectangle;html=1;whiteSpace=wrap;connectable=0;strokeColor=inherit;overflow=hidden;fillColor=none;top=0;left=0;bottom=0;right=0;pointerEvents=1;fontSize=16;" vertex="1" parent="js0NvnDeoMedCHYEqulD-37">
          <mxGeometry x="266" width="66" height="40" as="geometry">
            <mxRectangle width="66" height="40" as="alternateBounds" />
          </mxGeometry>
        </mxCell>
        <mxCell id="js0NvnDeoMedCHYEqulD-43" value="04247400744" style="shape=partialRectangle;html=1;whiteSpace=wrap;connectable=0;strokeColor=inherit;overflow=hidden;fillColor=none;top=0;left=0;bottom=0;right=0;pointerEvents=1;fontSize=16;" vertex="1" parent="js0NvnDeoMedCHYEqulD-37">
          <mxGeometry x="332" width="67" height="40" as="geometry">
            <mxRectangle width="67" height="40" as="alternateBounds" />
          </mxGeometry>
        </mxCell>
        <mxCell id="js0NvnDeoMedCHYEqulD-44" value="leonardo@gmail.com" style="shape=partialRectangle;html=1;whiteSpace=wrap;connectable=0;strokeColor=inherit;overflow=hidden;fillColor=none;top=0;left=0;bottom=0;right=0;pointerEvents=1;fontSize=16;" vertex="1" parent="js0NvnDeoMedCHYEqulD-37">
          <mxGeometry x="399" width="67" height="40" as="geometry">
            <mxRectangle width="67" height="40" as="alternateBounds" />
          </mxGeometry>
        </mxCell>
        <mxCell id="js0NvnDeoMedCHYEqulD-45" value="1996-01-16" style="shape=partialRectangle;html=1;whiteSpace=wrap;connectable=0;strokeColor=inherit;overflow=hidden;fillColor=none;top=0;left=0;bottom=0;right=0;pointerEvents=1;fontSize=16;" vertex="1" parent="js0NvnDeoMedCHYEqulD-37">
          <mxGeometry x="466" width="153" height="40" as="geometry">
            <mxRectangle width="153" height="40" as="alternateBounds" />
          </mxGeometry>
        </mxCell>
      </root>
    </mxGraphModel>
  </diagram>
</mxfile>
